<?xml version="1.0" encoding="UTF-8"?>
<svg width="247px" height="247px" viewBox="0 0 247 247" version="1.1" xmlns="http://www.w3.org/2000/svg" xmlns:xlink="http://www.w3.org/1999/xlink">
    <!-- Generator: Sketch 42 (36781) - http://www.bohemiancoding.com/sketch -->
    <title>tour-control</title>
    <desc>Created with Sketch.</desc>
    <defs>
        <linearGradient x1="50%" y1="0%" x2="50%" y2="89.4673583%" id="linearGradient-1">
            <stop stop-color="#192C3A" offset="0%"></stop>
            <stop stop-color="#192C3A" offset="100%"></stop>
        </linearGradient>
    </defs>
    <g id="Page-1" stroke="none" stroke-width="1" fill="none" fill-rule="evenodd">
        <g id="tour-control">
            <g id="Onboarding">
                <g id="0.2.3---Tour-3">
                    <g id="bg-3">
                        <path d="M123.5,247 C191.707167,247 247,191.707167 247,123.5 C247,55.2928334 191.707167,1.42108547e-14 123.5,1.42108547e-14 C55.2928334,1.42108547e-14 1.42108547e-14,55.2928334 1.42108547e-14,123.5 C1.42108547e-14,191.707167 55.2928334,247 123.5,247 Z" id="Oval-2" fill="url(#linearGradient-1)" fill-rule="nonzero" opacity="0.300000012"></path>
                        <rect id="Combined-Shape" stroke="#707D89" stroke-width="2" fill-opacity="0.65" fill="#192C3A" fill-rule="nonzero" x="63" y="24" width="99.8310062" height="183.875349" rx="8"></rect>
                        <path d="M63.5199532,180.634556 L162.311053,180.634556" id="Line" stroke="#707D89" stroke-width="2" stroke-linecap="square"></path>
                        <path d="M104.076299,194.254952 L122.794613,194.254952" id="Line" stroke="#707D89" stroke-width="2" stroke-linecap="square"></path>
                        <g id="Group-3" transform="translate(125.000000, 122.000000)" stroke="#12E5B6" stroke-width="2">
                            <rect id="Rectangle-path" fill="#192C3A" fill-rule="nonzero" x="0.00547760651" y="37.6483369" width="74.7600358" height="65.7214967" rx="4"></rect>
                            <path d="M18.6954866,37.6483369 L18.6954866,18.8707664 C18.6954866,8.54310266 27.1059906,0.0931959432 37.3854955,0.0931959432 L37.3854955,0.0931959432 C47.6650004,0.0931959432 56.0755044,8.54310266 56.0755044,18.8707664 L56.0755044,37.6483369" id="Shape"></path>
                            <path d="M36.6300769,65.8146926 L36.6300769,75.2034779" id="Shape" fill="#F9F9F9" fill-rule="nonzero"></path>
                        </g>
                    </g>
                </g>
            </g>
        </g>
    </g>
</svg>
